<svg width="40" height="40" viewBox="0 0 40 40" fill="none" xmlns="http://www.w3.org/2000/svg">
<circle cx="20" cy="20" r="20" fill="#C4C4C4"/>
<rect x="13.0754" y="9.74695" width="25" height="5" transform="rotate(45 13.0754 9.74695)" fill="white"/>
<rect x="13.0754" y="9.74695" width="25" height="5" transform="rotate(45 13.0754 9.74695)" fill="white"/>
<rect x="13.0754" y="9.74695" width="25" height="5" transform="rotate(45 13.0754 9.74695)" fill="white"/>
<rect x="13.0754" y="9.74695" width="25" height="5" transform="rotate(45 13.0754 9.74695)" fill="white"/>
<rect x="10.247" y="26.7175" width="25" height="5" transform="rotate(-45 10.247 26.7175)" fill="white"/>
<rect x="10.247" y="26.7175" width="25" height="5" transform="rotate(-45 10.247 26.7175)" fill="white"/>
<rect x="10.247" y="26.7175" width="25" height="5" transform="rotate(-45 10.247 26.7175)" fill="white"/>
<rect x="10.247" y="26.7175" width="25" height="5" transform="rotate(-45 10.247 26.7175)" fill="white"/>
</svg>
